<svg width="800" height="800" viewBox="0 0 800 800" fill="none" xmlns="http://www.w3.org/2000/svg">
    <path
        d="M400 148.387C378.065 148.387 361.29 131.613 361.29 109.677V38.7097C361.29 16.7742 378.065 0 400 0C421.935 0 438.71 16.7742 438.71 38.7097V109.677C438.71 130.323 421.935 148.387 400 148.387Z"
        fill="#7C5DFA" fill-opacity="0.25" />
    <path
        d="M400 800C378.065 800 361.29 783.226 361.29 761.29V690.323C361.29 668.387 378.065 651.613 400 651.613C421.935 651.613 438.71 668.387 438.71 690.323V761.29C438.71 783.226 421.935 800 400 800Z"
        fill="#7C5DFA" fill-opacity="0.8" />
    <path
        d="M254.194 187.097C241.29 187.097 228.387 180.645 220.645 167.742L185.806 107.097C175.484 89.0323 181.935 64.5161 200 54.1936C218.065 43.871 242.581 50.3226 252.903 68.3871L287.742 129.032C298.065 147.097 291.613 171.613 273.548 181.936C268.387 184.516 260.645 187.097 254.194 187.097Z"
        fill="#7C5DFA" fill-opacity="0.2" />
    <path
        d="M580.645 750.968C567.742 750.968 554.839 744.516 547.097 731.613L512.258 670.968C501.936 652.903 508.387 628.387 526.452 618.065C544.516 607.742 569.032 614.194 579.355 632.258L614.194 692.903C624.516 710.968 618.065 735.484 600 745.806C593.548 749.677 587.097 750.968 580.645 750.968Z"
        fill="#7C5DFA" fill-opacity="0.7" />
    <path
        d="M148.387 292.903C141.935 292.903 135.484 291.613 129.032 287.742L68.3871 252.903C50.3226 242.581 43.871 218.065 54.1936 200C64.5161 181.935 89.0323 175.484 107.097 185.806L167.742 220.645C185.806 230.968 192.258 255.484 181.935 273.548C174.194 286.452 161.29 292.903 148.387 292.903Z"
        fill="#7C5DFA" fill-opacity="0.1" />
    <path
        d="M713.548 619.355C707.097 619.355 700.645 618.065 694.194 614.194L632.258 579.355C614.194 569.032 607.742 544.516 618.065 526.452C628.387 508.387 652.903 501.936 670.968 512.258L731.613 547.097C749.677 557.419 756.129 581.936 745.806 600C739.355 612.903 726.452 619.355 713.548 619.355Z"
        fill="#7C5DFA" fill-opacity="0.6" />
    <path
        d="M109.677 438.71H38.7097C16.7742 438.71 0 421.935 0 400C0 378.065 16.7742 361.29 38.7097 361.29H109.677C131.613 361.29 148.387 378.065 148.387 400C148.387 421.935 130.323 438.71 109.677 438.71Z"
        fill="#7C5DFA" fill-opacity="0.05" />
    <path
        d="M761.29 438.71H690.323C668.387 438.71 651.613 421.935 651.613 400C651.613 378.065 668.387 361.29 690.323 361.29H761.29C783.226 361.29 800 378.065 800 400C800 421.935 783.226 438.71 761.29 438.71Z"
        fill="#7C5DFA" fill-opacity="0.55" />
    <path
        d="M86.4516 619.355C73.5484 619.355 60.6452 612.903 52.9032 600C42.5807 581.936 49.0323 557.419 67.0968 547.097L127.742 512.258C145.806 501.936 170.323 508.387 180.645 526.452C190.968 544.516 184.516 569.032 166.452 579.355L105.806 614.194C100.645 618.065 94.1936 619.355 86.4516 619.355Z"
        fill="#7C5DFA" />
    <path
        d="M651.613 292.903C638.71 292.903 625.806 286.452 618.065 273.548C607.742 255.484 614.194 230.968 632.258 220.645L692.903 185.806C710.968 175.484 735.484 181.935 745.806 200C756.129 218.065 749.677 242.581 731.613 252.903L670.968 287.742C664.516 291.613 658.065 292.903 651.613 292.903Z"
        fill="#7C5DFA" fill-opacity="0.4" />
    <path
        d="M219.355 750.968C212.903 750.968 206.452 749.677 200 745.806C181.935 735.484 175.484 710.968 185.806 692.903L220.645 632.258C230.968 614.194 255.484 607.742 273.548 618.065C291.613 628.387 298.065 652.903 287.742 670.968L252.903 731.613C245.161 744.516 232.258 750.968 219.355 750.968Z"
        fill="#7C5DFA" fill-opacity="0.9" />
    <path
        d="M545.806 187.097C539.355 187.097 532.903 185.806 526.452 181.936C508.387 171.613 501.936 147.097 512.258 129.032L547.097 68.3871C557.419 50.3226 581.936 43.871 600 54.1936C618.065 64.5161 624.516 89.0323 614.194 107.097L579.355 167.742C571.613 179.355 558.71 187.097 545.806 187.097Z"
        fill="#7C5DFA" fill-opacity="0.3" />
</svg>
    